<?xml version="1.0" standalone="no"?>
<!DOCTYPE svg PUBLIC "-//W3C//DTD SVG 20010904//EN"
 "http://www.w3.org/TR/2001/REC-SVG-20010904/DTD/svg10.dtd">
<svg version="1.0" xmlns="http://www.w3.org/2000/svg"
 width="512.000000pt" height="512.000000pt" viewBox="0 0 512.000000 512.000000"
 preserveAspectRatio="xMidYMid meet">

<g transform="translate(0.000000,512.000000) scale(0.100000,-0.100000)"
fill="#1aa3e8" stroke="none">
<path d="M1589 3985 c-145 -29 -289 -111 -391 -224 -37 -41 -118 -172 -268
-433 -117 -205 -223 -386 -234 -401 -35 -48 -94 -74 -266 -117 -99 -25 -188
-54 -223 -72 -99 -53 -171 -151 -197 -268 -8 -39 -11 -155 -8 -390 l3 -335 32
-67 c44 -93 100 -151 191 -196 l76 -37 196 -3 196 -4 28 -50 c59 -104 181
-198 316 -244 77 -26 244 -26 320 0 137 47 232 118 300 224 l45 71 855 0 855
1 29 -51 c59 -105 180 -199 316 -245 77 -26 244 -26 320 0 136 47 232 118 300
224 l45 69 196 4 195 4 76 37 c91 45 147 103 191 196 l32 67 3 195 c3 120 -1
224 -8 270 -32 200 -153 386 -322 493 -108 69 -175 90 -427 132 -160 27 -197
40 -244 84 -16 14 -125 196 -244 404 -153 267 -232 395 -271 437 -105 117
-246 196 -398 226 -106 20 -1514 19 -1615 -1z m1658 -173 c119 -45 229 -132
292 -232 16 -25 111 -189 211 -365 206 -362 234 -403 298 -447 69 -48 125 -65
322 -98 172 -29 270 -58 322 -94 21 -15 17 -16 -70 -16 -87 0 -95 -2 -119 -26
-24 -24 -25 -30 -20 -91 13 -138 96 -257 223 -319 63 -31 85 -37 163 -42 l91
-5 0 -135 c0 -168 -10 -202 -75 -267 -65 -66 -99 -75 -271 -75 l-139 0 3 68
c7 148 -52 296 -163 407 -114 115 -234 165 -395 165 -161 0 -281 -50 -395
-165 -111 -111 -170 -259 -163 -407 l3 -68 -805 0 -805 0 3 68 c7 148 -52 296
-163 407 -114 115 -234 165 -395 165 -161 0 -281 -50 -395 -165 -111 -111
-170 -259 -163 -407 l3 -68 -139 0 c-172 0 -206 9 -271 75 -66 65 -75 99 -75
269 l0 136 94 0 c74 0 98 4 115 18 17 13 33 59 66 192 25 96 45 185 45 196 0
12 -9 32 -19 45 -17 22 -29 24 -123 29 l-103 5 32 23 c21 14 97 40 204 67 94
24 194 55 223 69 93 46 130 96 346 476 112 195 215 373 230 395 82 119 229
214 370 238 14 3 367 4 785 3 l760 -1 62 -23z m-2969 -1492 l-20 -80 -49 0
-49 0 0 80 0 80 69 0 69 0 -20 -80z m4624 20 c14 -30 29 -65 33 -77 6 -22 3
-23 -41 -23 -78 0 -124 20 -181 77 -79 78 -75 84 55 81 l107 -3 27 -55z
m-3538 -298 c91 -42 149 -100 194 -190 35 -72 37 -81 37 -172 0 -91 -2 -100
-37 -172 -45 -91 -103 -147 -196 -191 -61 -29 -76 -32 -162 -32 -86 0 -101 3
-162 32 -93 44 -151 100 -196 191 -35 72 -37 81 -37 171 0 87 3 102 32 163 40
85 97 147 172 186 78 42 122 52 213 48 61 -3 92 -11 142 -34z m2720 0 c91 -42
149 -100 194 -190 35 -72 37 -81 37 -172 0 -91 -2 -100 -37 -172 -45 -91 -103
-147 -196 -191 -61 -29 -76 -32 -162 -32 -86 0 -101 3 -162 32 -93 44 -151
100 -196 191 -35 72 -37 81 -37 171 0 87 3 102 32 163 40 85 97 147 172 186
78 42 122 52 213 48 61 -3 92 -11 142 -34z"/>
<path d="M1607 3749 c-62 -14 -137 -58 -186 -107 -59 -60 -461 -728 -461 -767
0 -14 11 -37 25 -50 l24 -25 631 0 631 0 24 25 25 24 0 431 0 431 -25 24 -24
25 -313 -1 c-172 -1 -330 -5 -351 -10z m553 -469 l0 -320 -490 0 -489 0 160
268 c165 275 193 313 244 339 55 29 78 31 328 32 l247 1 0 -320z"/>
<path d="M2505 3736 l-25 -25 0 -431 0 -431 25 -24 24 -25 631 0 631 0 24 25
c14 13 25 36 25 50 0 37 -207 380 -238 394 -36 17 -61 13 -87 -14 -38 -38 -32
-69 40 -187 l64 -108 -489 0 -490 0 0 321 0 320 263 -3 c246 -3 264 -4 302
-25 49 -26 81 -60 128 -135 51 -81 90 -97 141 -57 37 29 35 73 -10 148 -59 99
-107 147 -192 188 l-76 38 -333 3 -333 3 -25 -25z"/>
<path d="M985 2695 c-16 -15 -25 -36 -25 -55 0 -19 9 -40 25 -55 23 -24 31
-25 135 -25 104 0 112 1 135 25 16 15 25 36 25 55 0 19 -9 40 -25 55 -23 24
-31 25 -135 25 -104 0 -112 -1 -135 -25z"/>
<path d="M2505 2695 c-16 -15 -25 -36 -25 -55 0 -19 9 -40 25 -55 23 -24 31
-25 135 -25 104 0 112 1 135 25 16 15 25 36 25 55 0 19 -9 40 -25 55 -23 24
-31 25 -135 25 -104 0 -112 -1 -135 -25z"/>
<path d="M1120 1907 c-49 -16 -133 -102 -148 -153 -28 -94 -8 -169 63 -239
101 -102 229 -102 330 0 98 97 101 222 8 325 -65 72 -158 97 -253 67z m135
-172 c16 -15 25 -36 25 -55 0 -19 -9 -40 -25 -55 -15 -16 -36 -25 -55 -25 -19
0 -40 9 -55 25 -16 15 -25 36 -25 55 0 19 9 40 25 55 15 16 36 25 55 25 19 0
40 -9 55 -25z"/>
<path d="M3840 1907 c-49 -16 -133 -102 -148 -153 -28 -94 -8 -169 63 -239
101 -102 229 -102 330 0 98 97 101 222 8 325 -65 72 -158 97 -253 67z m135
-172 c50 -49 15 -135 -55 -135 -41 0 -80 39 -80 80 0 41 39 80 80 80 19 0 40
-9 55 -25z"/>
</g>
</svg>
